<svg id="Capa_1" enable-background="new 0 0 513.307 513.307" height="512" viewBox="0 0 513.307 513.307" width="512" xmlns="http://www.w3.org/2000/svg"><path d="m285.809 177.061c-2.136-5.962-7.788-9.94-14.121-9.94-6.334 0-11.984 3.978-14.121 9.94l-39.288 109.65c-1.833 5.117-.755 10.825 2.818 14.921 2.881 3.302 7.02 5.139 11.302 5.139 1.03 0 2.068-.106 3.099-.324l73.05-15.423c4.239-.895 7.885-3.58 9.998-7.362 2.112-3.783 2.486-8.295 1.025-12.374zm-30.229 94.485 16.108-44.955 13.842 38.632z"/><path d="m508.566 285.716-53.121-49.813c-3.576-3.354-8.566-4.749-13.359-3.734l-70.534 14.892-84.506-235.85c-2.132-5.951-7.766-9.926-14.087-9.94-.012 0-.023 0-.035 0-6.307 0-11.942 3.946-14.097 9.876l-102.239 281.3-144.686 30.546c-6.118 1.292-10.793 6.243-11.731 12.425-.938 6.183 2.057 12.298 7.516 15.347l79.152 44.205c3.164 1.767 6.86 2.328 10.409 1.581l23.289-4.911-36.445 100.272c-2.154 5.926-.372 12.566 4.459 16.618 2.766 2.319 6.192 3.506 9.641 3.506 2.577 0 5.165-.663 7.5-2.011l76.495-44.185c3.075-1.776 5.42-4.586 6.619-7.929l31.264-87.257 95.985-20.239 32.36 90.315c.999 2.788 2.801 5.218 5.179 6.984l82.65 61.366c5.307 3.94 12.567 3.942 17.877.005 5.309-3.937 7.415-10.885 5.186-17.108l-57.222-159.701 99.316-20.941c5.47-1.153 9.845-5.253 11.351-10.637s-.107-11.158-4.186-14.982zm-129.497 20.753c-4.24.894-7.887 3.578-10 7.362-2.113 3.783-2.487 8.295-1.026 12.375l46.314 129.258-39.232-29.129-35.241-98.356c-2.529-7.057-9.879-11.164-17.216-9.618l-116.988 24.668c-5.096 1.074-9.27 4.715-11.026 9.618l-32.235 89.967-36.059 20.829 31.593-86.924c1.861-5.12.8-10.845-2.771-14.958-2.881-3.319-7.031-5.167-11.326-5.167-1.028 0-2.066.106-3.095.323l-44.202 9.32-39.313-21.956 113.694-24.004c5.07-1.07 9.229-4.682 10.999-9.552l90.887-250.066 74.9 209.041c2.529 7.059 9.885 11.169 17.22 9.617l75.686-15.979 26.425 24.779z"/></svg>