<svg id="Capa_1" enable-background="new 0 0 512 512" height="512" viewBox="0 0 512 512" width="512" xmlns="http://www.w3.org/2000/svg"><g><path d="m373.489 364.092c-20.008-5.043-35.828-9.471-47.542-17.172-.104-.091-2.825-1.979-2.892-2.015-8.219-6.178-14.139-14.381-17.806-26.197 33.142-17.676 55.751-52.599 55.751-92.708v-70.063c16.562-25.171 37.311-57.494 37.528-57.834 3.736-5.824 3.006-13.449-1.771-18.456-3.669-3.844-8.992-5.38-13.977-4.318-3.757.387-19.239 1.133-30.674 1.684-2.845.137-5.719.274-8.524.412.13-2.672.261-5.399.39-8.101.557-11.576 1.308-27.243 1.698-31.078.223-1.038.332-2.088.333-3.132 0-5.185-2.69-10.229-7.505-13.007-5.78-3.336-12.858-2.389-17.559 1.859-2.902 2.096-14.755 9.744-23.521 15.4-3.125 2.017-6.29 4.061-9.342 6.036-1.231-2.396-2.492-4.841-3.739-7.262-5.305-10.297-12.482-24.233-14.061-27.748-1.942-6.03-7.598-10.392-14.276-10.392-6.677 0-12.334 4.362-14.278 10.392-1.577 3.515-8.756 17.451-14.061 27.748-1.247 2.421-2.507 4.866-3.739 7.262-3.052-1.976-6.217-4.02-9.342-6.036-8.765-5.656-20.614-13.304-23.52-15.4-4.697-4.249-11.778-5.197-17.559-1.86-4.813 2.777-7.505 7.822-7.505 13.007.001 1.044.109 2.093.333 3.131.362 3.563 1.061 17.655 1.577 28.077.184 3.713.37 7.472.556 11.1-2.687-.131-5.431-.262-8.147-.393l-7.454-.359c-5.062-.246-20.013-.971-23.644-1.342-4.988-1.06-10.309.476-13.975 4.319-4.777 5.007-5.509 12.632-1.771 18.456.218.34 20.967 32.663 37.528 57.835v70.063c0 40.109 22.609 75.032 55.749 92.708-3.667 11.815-9.588 20.02-17.806 26.197-.065.035-2.787 1.924-2.89 2.015-11.714 7.701-27.534 12.129-47.542 17.172-47.898 12.073-107.51 27.099-107.51 132.908 0 8.284 6.716 15 15 15h420c8.284 0 15-6.716 15-15 0-105.809-59.612-120.835-107.511-132.908zm-192.489 38.087v58.18l-25.139-25.558zm30 33.781c12.544 9.438 28.129 15.04 45 15.04s32.456-5.603 45-15.041v46.041h-90zm120-33.781 25.139 32.622-25.139 25.558zm-172.121-295.186c8.981.431 18.27.876 24.606 1.25 4.284.255 8.489-1.347 11.521-4.397 3.033-3.051 4.61-7.256 4.332-11.548-.454-7.006-.97-17.405-1.469-27.464-.009-.188-.019-.379-.027-.566.155.101.312.201.47.303 8.463 5.462 17.215 11.11 23.057 15.008 3.578 2.387 8.005 3.124 12.166 2.022 4.157-1.102 7.642-3.935 9.569-7.779 2.845-5.677 7.105-13.947 11.226-21.945.576-1.118 1.133-2.198 1.67-3.241.537 1.042 1.094 2.123 1.67 3.241 4.12 7.998 8.381 16.269 11.227 21.945 1.928 3.845 5.412 6.678 9.568 7.779 4.16 1.102 8.59.363 12.166-2.022 5.842-3.896 14.594-9.546 23.058-15.008.165-.106.329-.213.492-.318-.057 1.17-.113 2.378-.174 3.633-.429 8.937-.872 18.177-1.244 24.509-.253 4.279 1.34 8.463 4.372 11.493 3.032 3.029 7.229 4.621 11.497 4.361 6.388-.382 15.808-.835 24.917-1.273 1.269-.062 2.49-.12 3.671-.178-6.871 10.611-14.935 23.011-22.114 33.91l-25.785-17.189c-.055-.036-3.164-2.515-8.514-2.515-3.088 0-7.191 1.938-7.248 1.972-32.644 18.653-42.474 18.653-75.115 0-.059-.034-3.006-1.954-7.968-1.954-3.569 0-7.74 2.458-7.795 2.496l-25.785 17.189c-7.181-10.9-15.246-23.302-22.116-33.913zm22.121 119.007v-51.972l30.754-20.503c16.91 8.896 30.582 13.353 44.246 13.353s27.335-4.458 44.246-13.353l30.754 20.503v51.972c0 41.355-33.645 75-75 75s-75-33.645-75-75zm75 105c7.206 0 14.244-.73 21.045-2.12 4.898 14.946 12.828 27.07 23.955 36.647v10.473c0 24.813-20.188 45-45 45-24.813 0-45-20.187-45-45v-10.473c11.127-9.578 19.055-21.701 23.955-36.647 6.801 1.389 13.839 2.12 21.045 2.12zm-169.491 87.115c15.412-13.861 36.746-19.239 59.334-24.932 1.741-.439 3.489-.882 5.238-1.327l-26.962 34.988c-4.572 5.935-4.065 14.333 1.188 19.675l34.9 35.48h-98.723c2.003-29.608 10.244-50.59 25.025-63.884zm265.285 63.885 34.9-35.48c5.253-5.341 5.76-13.74 1.188-19.675l-26.962-34.988c1.749.446 3.496.888 5.238 1.327 22.588 5.692 43.922 11.07 59.334 24.932 14.781 13.295 23.021 34.276 25.023 63.886z"/></g></svg>