<svg id="Capa_1" enable-background="new 0 0 512 512" height="512" viewBox="0 0 512 512" width="512" xmlns="http://www.w3.org/2000/svg"><g><path d="m135.519 364.217c-39.883 12.191-89.519 27.363-89.519 132.783 0 8.284 6.716 15 15 15h360c8.284 0 15-6.716 15-15 0-58.084-15.071-88.766-35.274-106.651 36.774-4.787 65.274-36.292 65.274-74.349v-30c0-8.284-6.716-15-15-15s-15 6.716-15 15c0 8.271-6.729 15-15 15s-15-6.729-15-15v-196c0-49.626-40.374-90-90-90-12.404 0-24.709 2.586-36.009 7.511-12.061-4.841-25.22-7.511-38.991-7.511h-30c-74.439 0-135 60.561-135 135 0 36.252 25.815 66.575 60 73.508v17.492c0 40.156 22.663 75.114 55.866 92.771-8.548 29.993-27.405 36.601-56.347 45.446zm180.481 117.783h-150v-30h150zm-180-86.526v86.526h-59.64c3.23-63.945 27.845-76.418 59.64-86.526zm269.64 86.526h-59.64v-86.526c31.795 10.108 56.41 22.581 59.64 86.526zm-89.64-452c33.084 0 60 26.916 60 60v196c0 24.813 20.187 45 45 45 4.542 0 8.93-.677 13.066-1.934-5.612 18.462-22.795 31.934-43.066 31.934h-54.016c-10.162-4.431-36.869-7.207-46.851-42.229 33.204-17.657 55.867-52.615 55.867-92.771v-121c0-29.341-12.102-55.905-31.571-74.976.523-.013 1.047-.024 1.571-.024zm-210 105c0-57.897 47.103-105 105-105h30c41.355 0 75 33.645 75 75 0 24.813-20.187 45-45 45h-120c-8.419 0-14.951 6.963-14.98 14.941l-.02 12.499c-17.431-6.183-30-22.873-30-42.44zm60 91v-46h105c16.871 0 32.456-5.603 45-15.041v61.041c0 41.355-33.645 75-75 75s-75-33.645-75-75zm75 105c7.145 0 14.125-.72 20.873-2.087 10.348 33.76 32.105 48.071 54.127 56.717v36.37h-150v-36.37c22.022-8.646 43.779-22.957 54.127-56.717 6.748 1.367 13.728 2.087 20.873 2.087z"/></g></svg>